<svg width="20" height="20" viewBox="0 0 10 7" fill="none" xmlns="http://www.w3.org/2000/svg">
<path d="M6.4623 6.28524H0.553279C0.243443 6.28524 0 6.0418 0 5.73196V0.553279C0 0.243443 0.243443 0 0.553279 0H6.4623C6.77213 0 7.01558 0.243443 7.01558 0.553279V5.73196C7.01558 6.0418 6.77213 6.28524 6.4623 6.28524ZM1.08442 5.17868H5.88689V1.10656H1.08442V5.17868Z" fill="black"/>
<path d="M9.0518 6.08609C8.98541 6.08609 8.89688 6.06396 8.83049 6.04183L6.24115 4.93527C6.04197 4.84675 5.90918 4.64757 5.90918 4.42626V1.83691C5.90918 1.6156 6.04197 1.41642 6.24115 1.3279L8.83049 0.221341C9.00754 0.154947 9.20672 0.154936 9.36163 0.265592C9.51655 0.376248 9.60508 0.531174 9.60508 0.730354V5.53282C9.60508 5.70986 9.51655 5.88691 9.36163 5.99756C9.25098 6.06396 9.16245 6.08609 9.0518 6.08609ZM7.01574 4.07215L8.49852 4.71396V1.57134L7.01574 2.21314V4.07215Z" fill="black"/>
</svg>
