<svg width="20" height="20" viewBox="0 0 10 10" fill="none" xmlns="http://www.w3.org/2000/svg">
<path d="M4.80246 9.22868C4.66967 9.22868 4.51476 9.18443 4.4041 9.07377L2.72213 7.39181H0.553279C0.243443 7.39181 0 7.14837 0 6.83853V0.553279C0 0.243443 0.243443 0 0.553279 0H9.05164C9.36148 0 9.60492 0.243443 9.60492 0.553279V6.83853C9.60492 7.14837 9.36148 7.39181 9.05164 7.39181H6.88279L5.20082 9.07377C5.09016 9.18443 4.95738 9.22868 4.80246 9.22868ZM1.10656 6.26312H2.96558C3.12049 6.26312 3.25328 6.32951 3.36393 6.41803L4.82459 7.87868L6.28525 6.41803C6.3959 6.30738 6.52869 6.26312 6.68361 6.26312H8.54262V1.08443H1.15082V6.26312H1.10656Z" fill="black"/>
<path d="M4.8023 4.22702C4.64738 4.22702 4.5146 4.16064 4.40394 4.07212C4.29329 3.96146 4.24902 3.82866 4.24902 3.67374C4.24902 3.62948 4.24902 3.60735 4.27116 3.56309C4.27116 3.51883 4.29329 3.4967 4.29329 3.45243C4.31542 3.40817 4.31542 3.38603 4.33755 3.3639C4.35968 3.34177 4.38181 3.29753 4.40394 3.2754C4.53673 3.14261 4.71378 3.0762 4.91296 3.12047C4.95722 3.12047 4.97935 3.14259 5.02361 3.14259C5.06788 3.16472 5.09001 3.16474 5.11214 3.18687C5.13427 3.209 5.17853 3.23112 5.20066 3.25325C5.31132 3.3639 5.35558 3.4967 5.35558 3.65162C5.35558 3.80654 5.28919 3.93933 5.20066 4.04999C5.09001 4.18278 4.95722 4.22702 4.8023 4.22702Z" fill="black"/>
<path d="M6.46197 4.22702C6.30705 4.22702 6.17427 4.16064 6.06361 4.07212C5.95296 3.96146 5.90869 3.82866 5.90869 3.67374C5.90869 3.62948 5.90869 3.60735 5.93082 3.56309C5.93082 3.51883 5.95296 3.4967 5.95296 3.45243C5.97509 3.40817 5.97509 3.38603 5.99722 3.3639C6.01935 3.34177 6.04148 3.29753 6.06361 3.2754C6.1964 3.14261 6.37345 3.0762 6.57263 3.12047C6.61689 3.12047 6.63902 3.14259 6.68328 3.14259C6.72754 3.16472 6.74968 3.16474 6.77181 3.18687C6.79394 3.209 6.8382 3.23112 6.86033 3.25325C6.97099 3.3639 7.01525 3.4967 7.01525 3.65162C7.01525 3.80654 6.94886 3.93933 6.86033 4.04999C6.74968 4.18278 6.61689 4.22702 6.46197 4.22702Z" fill="black"/>
<path d="M3.14263 4.22702C2.98772 4.22702 2.85493 4.16064 2.74428 4.07212C2.63362 3.96146 2.58936 3.82866 2.58936 3.67374C2.58936 3.62948 2.58936 3.60735 2.61149 3.56309C2.61149 3.51883 2.63362 3.4967 2.63362 3.45243C2.65575 3.40817 2.65575 3.38603 2.67788 3.3639C2.70001 3.34177 2.72215 3.29753 2.74428 3.2754C2.87706 3.14261 3.05411 3.0762 3.25329 3.12047C3.29755 3.12047 3.31968 3.14259 3.36395 3.14259C3.40821 3.16472 3.43034 3.16474 3.45247 3.18687C3.4746 3.209 3.51886 3.23112 3.541 3.25325C3.65165 3.3639 3.69591 3.4967 3.69591 3.65162C3.69591 3.80654 3.62952 3.93933 3.541 4.04999C3.43034 4.18278 3.29755 4.22702 3.14263 4.22702Z" fill="black"/>
</svg>
