<svg width="12" height="12" viewBox="0 0 12 12" fill="none" xmlns="http://www.w3.org/2000/svg">
<path d="M9.62021 10.4019C9.90593 10.7162 10.3059 10.9162 10.7345 10.9162C11.0488 10.9162 11.3059 10.8305 11.5631 10.6876C11.1059 10.4305 10.7631 9.94478 10.6774 9.40193C11.0488 8.85907 11.2488 8.20192 11.2488 7.48764C11.2488 5.60192 9.70592 4.05907 7.82021 4.05907C5.93449 4.05907 4.39163 5.60192 4.39163 7.48764C4.39163 9.37335 5.93449 10.9162 7.82021 10.9162C8.50592 10.9162 9.10593 10.7448 9.62021 10.4019Z" stroke="black" stroke-width="0.8" stroke-miterlimit="10" stroke-linejoin="round"/>
<path d="M3.56313 7.08763C3.27741 7.00192 3.02027 6.88763 2.76313 6.74477C2.50598 7.03048 2.13456 7.20191 1.73456 7.20191C1.44884 7.20191 1.1917 7.1162 0.991699 6.97335C1.42027 6.7162 1.73456 6.3162 1.82027 5.80191C1.47741 5.28763 1.27741 4.68763 1.27741 4.05906C1.27741 2.3162 2.67741 0.916199 4.42027 0.916199C5.87742 0.916199 7.07742 1.88763 7.44885 3.23049" stroke="black" stroke-width="0.8" stroke-miterlimit="10" stroke-linejoin="round"/>
</svg>
