<svg width="12" height="12" viewBox="0 0 12 12" fill="none" xmlns="http://www.w3.org/2000/svg">
<path d="M3.11691 10.1296C3.29338 9.07074 3.99926 8.18838 4.94044 7.74721" stroke="black" stroke-width="0.8" stroke-miterlimit="10"/>
<path d="M7.64636 7.74721C7.9993 7.89427 8.29342 8.12956 8.58754 8.39427C9.05812 8.86486 9.38165 9.45309 9.4993 10.1296" stroke="black" stroke-width="0.8" stroke-miterlimit="10"/>
<path d="M6.29336 11.2766C9.05478 11.2766 11.2934 9.03807 11.2934 6.27664C11.2934 3.51522 9.05478 1.27664 6.29336 1.27664C3.53194 1.27664 1.29337 3.51522 1.29337 6.27664C1.29337 9.03807 3.53194 11.2766 6.29336 11.2766Z" stroke="black" stroke-width="0.8" stroke-miterlimit="10"/>
<path d="M6.29338 8.33544C7.43044 8.33544 8.3522 7.282 8.3522 5.9825C8.3522 4.68301 7.43044 3.62956 6.29338 3.62956C5.15632 3.62956 4.23456 4.68301 4.23456 5.9825C4.23456 7.282 5.15632 8.33544 6.29338 8.33544Z" stroke="black" stroke-width="0.8" stroke-miterlimit="10"/>
</svg>
