<svg width="21" height="21" viewBox="0 0 21 21" fill="none" xmlns="http://www.w3.org/2000/svg">
<g clip-path="url(#clip0_90_2542)">
<circle cx="10.1481" cy="10.1481" r="10" fill="#DE6DF1"/>
<path d="M10.0209 12.3118C11.2105 12.3118 12.1748 11.3475 12.1748 10.1579C12.1748 8.96839 11.2105 8.00408 10.0209 8.00408C8.83141 8.00408 7.8671 8.96839 7.8671 10.1579C7.8671 11.3475 8.83141 12.3118 10.0209 12.3118Z" stroke="white" stroke-width="0.8" stroke-miterlimit="10" stroke-linejoin="round"/>
<path d="M5.71326 6.9579L9.40557 4.83482C9.7748 4.61944 10.2671 4.61944 10.6363 4.83482L14.3287 6.9579C14.6979 7.17329 14.944 7.57329 14.944 8.03482V12.3117C14.944 12.7425 14.6979 13.1425 14.3287 13.3887L10.6363 15.5117C10.2671 15.7271 9.7748 15.7271 9.40557 15.5117L5.71326 13.3887C5.34402 13.1733 5.09787 12.7733 5.09787 12.3117V8.03482C5.09787 7.57329 5.34402 7.17329 5.71326 6.9579Z" stroke="white" stroke-width="0.8" stroke-miterlimit="10" stroke-linejoin="round"/>
</g>
<defs>
<clipPath id="clip0_90_2542">
<rect width="20" height="20" fill="white" transform="translate(0.148148 0.148148)"/>
</clipPath>
</defs>
</svg>
