<svg width="12" height="13" viewBox="0 0 12 13" fill="none" xmlns="http://www.w3.org/2000/svg">
<path d="M6.02094 8.31177C7.21048 8.31177 8.17479 7.34746 8.17479 6.15792C8.17479 4.96838 7.21048 4.00407 6.02094 4.00407C4.83141 4.00407 3.8671 4.96838 3.8671 6.15792C3.8671 7.34746 4.83141 8.31177 6.02094 8.31177Z" stroke="black" stroke-width="0.8" stroke-miterlimit="10" stroke-linejoin="round"/>
<path d="M1.71326 2.95789L5.40557 0.834817C5.7748 0.619433 6.26711 0.619433 6.63634 0.834817L10.3287 2.95789C10.6979 3.17328 10.944 3.57328 10.944 4.03482V8.31174C10.944 8.74251 10.6979 9.14251 10.3287 9.38866L6.63634 11.5117C6.26711 11.7271 5.7748 11.7271 5.40557 11.5117L1.71326 9.38866C1.34402 9.17328 1.09787 8.77328 1.09787 8.31174V4.03482C1.09787 3.57328 1.34402 3.17328 1.71326 2.95789Z" stroke="black" stroke-width="0.8" stroke-miterlimit="10" stroke-linejoin="round"/>
</svg>
