<svg width="21" height="20" viewBox="0 0 21 20" fill="none" xmlns="http://www.w3.org/2000/svg">
<g clip-path="url(#clip0_90_2537)">
<circle cx="10.1481" cy="10" r="10" fill="#8381FF"/>
<path d="M13.6202 14.4019C13.9059 14.7162 14.3059 14.9162 14.7345 14.9162C15.0488 14.9162 15.3059 14.8305 15.5631 14.6876C15.1059 14.4305 14.7631 13.9448 14.6774 13.4019C15.0488 12.8591 15.2488 12.2019 15.2488 11.4876C15.2488 9.60193 13.7059 8.05907 11.8202 8.05907C9.93449 8.05907 8.39163 9.60193 8.39163 11.4876C8.39163 13.3734 9.93449 14.9162 11.8202 14.9162C12.5059 14.9162 13.1059 14.7448 13.6202 14.4019Z" stroke="white" stroke-width="0.8" stroke-miterlimit="10" stroke-linejoin="round"/>
<path d="M7.56314 11.0876C7.27743 11.0019 7.02029 10.8876 6.76314 10.7448C6.506 11.0305 6.13457 11.2019 5.73457 11.2019C5.44886 11.2019 5.19171 11.1162 4.99171 10.9733C5.42029 10.7162 5.73457 10.3162 5.82028 9.80192C5.47743 9.28763 5.27743 8.68763 5.27743 8.05906C5.27743 6.3162 6.67743 4.9162 8.42029 4.9162C9.87743 4.9162 11.0774 5.88763 11.4489 7.23049" stroke="white" stroke-width="0.8" stroke-miterlimit="10" stroke-linejoin="round"/>
</g>
<defs>
<clipPath id="clip0_90_2537">
<rect width="20" height="20" fill="white" transform="translate(0.148148)"/>
</clipPath>
</defs>
</svg>
