<svg width="20" height="20" viewBox="0 0 10 9" fill="#fff" xmlns="http://www.w3.org/2000/svg">
<path d="M9.05163 6.28525H0.553279C0.243443 6.28525 0 6.04181 0 5.73197V0.553279C0 0.243443 0.243443 0 0.553279 0H9.05163C9.36147 0 9.60491 0.243443 9.60491 0.553279V5.73197C9.60491 6.04181 9.33934 6.28525 9.05163 6.28525ZM1.08442 5.17869H8.47623V1.10656H1.08442V5.17869Z" fill="white"/>
<path d="M6.46231 8.14416H3.14263C2.8328 8.14416 2.58936 7.90071 2.58936 7.59088C2.58936 7.28104 2.8328 7.0376 3.14263 7.0376H6.46231C6.77214 7.0376 7.01558 7.28104 7.01558 7.59088C7.01558 7.90071 6.75001 8.14416 6.46231 8.14416Z" fill="white"/>
<path d="M4.78033 8.14426C4.47049 8.14426 4.22705 7.90082 4.22705 7.59098V5.73199C4.22705 5.42215 4.47049 5.17871 4.78033 5.17871C5.09017 5.17871 5.33361 5.42215 5.33361 5.73199V7.59098C5.33361 7.90082 5.09017 8.14426 4.78033 8.14426Z" fill="white"/>
</svg>
