<svg width="20" height="20" viewBox="0 0 10 10" fill="none" xmlns="http://www.w3.org/2000/svg">
<path d="M3.51886 9.99636C3.45246 9.99636 3.38607 9.97423 3.31967 9.9521L0.3541 8.84554C0.132788 8.75702 0 8.55784 0 8.33653V0.568487C0 0.391437 0.0885259 0.214394 0.243444 0.103738C0.398362 -0.00691783 0.575415 -0.0290463 0.752464 0.0373472L3.71804 1.1439C3.93935 1.23243 4.07214 1.43161 4.07214 1.65292V9.42095C4.07214 9.59799 3.98361 9.77505 3.82869 9.88571C3.74017 9.9521 3.62951 9.99636 3.51886 9.99636ZM1.10656 7.93817L2.96558 8.62423V2.05128L1.10656 1.36522V7.93817Z" fill="white"/>
<path d="M3.5191 9.99646C3.40844 9.99646 3.29778 9.95219 3.20926 9.90792C3.05434 9.79727 2.96582 9.64236 2.96582 9.44318V1.67514C2.96582 1.45382 3.0986 1.23251 3.31991 1.16612L6.28549 0.059564C6.46254 -0.00682948 6.63959 0.015299 6.79451 0.125955C6.94942 0.23661 7.03795 0.391537 7.03795 0.590717V8.35874C7.03795 8.58006 6.90516 8.80136 6.68385 8.86776L3.71828 9.97432C3.65188 9.97432 3.58549 9.99646 3.5191 9.99646ZM4.07238 2.05137V8.62432L5.93139 7.93826V1.36531L4.07238 2.05137Z" fill="white"/>
<path d="M9.42803 9.99636C9.36164 9.99636 9.29525 9.97423 9.22885 9.9521L6.26328 8.84554C6.04197 8.75702 5.90918 8.55784 5.90918 8.33653V0.568487C5.90918 0.391437 5.99771 0.214394 6.15262 0.103738C6.30754 -0.00691783 6.48459 -0.0290463 6.66164 0.0373472L9.62721 1.1439C9.84852 1.23243 9.98131 1.43161 9.98131 1.65292V9.42095C9.98131 9.59799 9.89278 9.77505 9.73787 9.88571C9.64934 9.9521 9.53869 9.99636 9.42803 9.99636ZM7.03787 7.93817L8.89688 8.62423V2.05128L7.03787 1.36522V7.93817Z" fill="white"/>
</svg>
