<svg width="17" height="17" viewBox="0 0 8 8" fill="none" xmlns="http://www.w3.org/2000/svg">
<path d="M3.14348 7.01643C2.92217 7.01643 2.72298 6.88364 2.63445 6.68446L0.0451181 0.775443C-0.0434064 0.576263 0.000855858 0.332823 0.155774 0.155774C0.310692 0.000855858 0.554132 -0.0434064 0.775443 0.0451181L6.68446 2.63446C6.88364 2.72299 7.01643 2.92216 7.01643 3.12134C7.01643 3.34265 6.90577 3.54184 6.70659 3.63037L4.64839 4.64839L3.63035 6.70659C3.54183 6.90577 3.36479 7.01643 3.14348 7.01643ZM1.63855 1.61642L3.18773 5.15741L3.76315 4.00659C3.80741 3.89593 3.89593 3.80741 4.00659 3.76315L5.15741 3.18774L1.63855 1.61642Z" fill="black"/>
<path d="M6.48498 7.0165C6.35219 7.0165 6.19727 6.97223 6.08662 6.86157L3.8735 4.64846C3.65219 4.42715 3.65219 4.07305 3.8735 3.87387C4.09481 3.65256 4.44891 3.65256 4.64809 3.87387L6.86121 6.08698C7.08252 6.3083 7.08252 6.66239 6.86121 6.86157C6.77268 6.97223 6.61776 7.0165 6.48498 7.0165Z" fill="black"/>
</svg>
