<svg width="20" height="20" viewBox="0 0 9 8" fill="none" xmlns="http://www.w3.org/2000/svg">
<path d="M5.88689 5.55492H0.553279C0.243443 5.55492 0 5.31148 0 5.00164C0 4.69181 0.243443 4.44836 0.553279 4.44836H5.88689C6.19673 4.44836 6.44017 4.69181 6.44017 5.00164C6.44017 5.31148 6.19673 5.55492 5.88689 5.55492Z" fill="black"/>
<path d="M8.29918 7.76806H0.553279C0.243443 7.76806 0 7.52461 0 7.21478C0 6.90494 0.243443 6.6615 0.553279 6.6615H8.29918C8.60902 6.6615 8.85246 6.90494 8.85246 7.21478C8.85246 7.52461 8.58689 7.76806 8.29918 7.76806Z" fill="black"/>
<path d="M8.29918 3.34179H0.553279C0.243443 3.34179 0 3.09834 0 2.78851C0 2.47867 0.243443 2.23523 0.553279 2.23523H8.29918C8.60902 2.23523 8.85246 2.47867 8.85246 2.78851C8.85246 3.07621 8.58689 3.34179 8.29918 3.34179Z" fill="black"/>
<path d="M5.88689 1.10656H0.553279C0.243443 1.10656 0 0.863115 0 0.553279C0 0.243443 0.243443 0 0.553279 0H5.88689C6.19673 0 6.44017 0.243443 6.44017 0.553279C6.44017 0.863115 6.19673 1.10656 5.88689 1.10656Z" fill="black"/>
</svg>
