<svg width="20" height="20" viewBox="0 0 9 9" fill="none" xmlns="http://www.w3.org/2000/svg">
<path d="M4.44282 8.16734C4.39856 8.16734 4.3543 8.16734 4.31004 8.1452C4.22151 8.12307 4.11085 8.07882 4.04446 7.9903L0.901836 4.84767C0.879705 4.82554 0.857571 4.80341 0.857571 4.78128L0.81332 4.73701C-0.271107 3.65259 -0.271107 1.90423 0.81332 0.819799C1.80922 -0.176103 3.35839 -0.242499 4.44282 0.554222C5.52725 -0.26463 7.07643 -0.176103 8.07233 0.819799C9.15676 1.90423 9.15676 3.65259 8.07233 4.73701L8.02807 4.78128C8.00594 4.80341 8.00593 4.82554 7.9838 4.84767L4.84118 8.01242C4.73052 8.12308 4.59774 8.16734 4.44282 8.16734ZM1.74282 4.13947L4.44282 6.83947L7.14282 4.13947C7.16495 4.11734 7.16496 4.09521 7.18709 4.07308L7.2756 3.98455C7.91741 3.34275 7.91741 2.28046 7.2756 1.63865C6.6338 0.996851 5.57151 0.996851 4.92971 1.63865L4.84118 1.72717C4.73052 1.83783 4.59774 1.88209 4.44282 1.88209C4.2879 1.88209 4.15512 1.81569 4.04446 1.72717L3.95593 1.63865C3.31413 0.996851 2.25184 0.996851 1.61004 1.63865C0.968232 2.28046 0.968232 3.34275 1.61004 3.98455L1.69857 4.07308C1.7207 4.09521 1.74282 4.11734 1.74282 4.13947Z" fill="black"/>
</svg>
