<svg width="20" height="20" viewBox="0 0 9 10" fill="none" xmlns="http://www.w3.org/2000/svg">
<path d="M4.07213 9.62705C3.91721 9.62705 3.78443 9.56066 3.67377 9.47214L1.19508 6.97131C-0.398361 5.37787 -0.398361 2.78852 1.19508 1.19508C1.96967 0.42049 2.9877 0 4.07213 0C5.15656 0 6.17459 0.42049 6.94918 1.19508C8.54262 2.78852 8.54262 5.37787 6.94918 6.97131L4.47049 9.47214C4.35983 9.58279 4.22705 9.62705 4.07213 9.62705ZM4.07213 1.12869C3.27541 1.12869 2.54509 1.43852 1.99181 1.9918C0.840992 3.14262 0.840992 5.02377 1.99181 6.19672L4.07213 8.29918L6.15246 6.19672C7.30328 5.0459 7.30328 3.16475 6.15246 1.9918C5.62132 1.43852 4.86885 1.12869 4.07213 1.12869Z" fill="white"/>
<path d="M4.07222 6.13041C3.00992 6.13041 2.16895 5.2673 2.16895 4.22713C2.16895 3.18697 3.03205 2.32385 4.07222 2.32385C5.13451 2.32385 5.97551 3.18697 5.97551 4.22713C5.97551 5.2673 5.13451 6.13041 4.07222 6.13041ZM4.07222 3.40828C3.6296 3.40828 3.2755 3.76238 3.2755 4.205C3.2755 4.64762 3.6296 5.00172 4.07222 5.00172C4.51484 5.00172 4.86895 4.64762 4.86895 4.205C4.86895 3.76238 4.51484 3.40828 4.07222 3.40828Z" fill="white"/>
</svg>
