<svg width="20" height="20" viewBox="0 0 9 10" fill="#fff" xmlns="http://www.w3.org/2000/svg">
<path d="M1.65984 3.31967C0.752459 3.31967 0 2.56721 0 1.65984C0 0.752459 0.752459 0 1.65984 0C2.56721 0 3.31967 0.752459 3.31967 1.65984C3.31967 2.56721 2.58934 3.31967 1.65984 3.31967ZM1.65984 1.08443C1.35 1.08443 1.10656 1.32787 1.10656 1.63771C1.10656 1.94755 1.35 2.19099 1.65984 2.19099C1.96967 2.19099 2.21311 1.94755 2.21311 1.63771C2.21311 1.32787 1.96967 1.08443 1.65984 1.08443Z" fill="white"/>
<path d="M1.65984 9.95908C0.752459 9.95908 0 9.20662 0 8.29924C0 7.39186 0.752459 6.6394 1.65984 6.6394C2.56721 6.6394 3.31967 7.39186 3.31967 8.29924C3.31967 9.22875 2.58934 9.95908 1.65984 9.95908ZM1.65984 7.74596C1.35 7.74596 1.10656 7.9894 1.10656 8.29924C1.10656 8.60908 1.35 8.85252 1.65984 8.85252C1.96967 8.85252 2.21311 8.60908 2.21311 8.29924C2.21311 7.9894 1.96967 7.74596 1.65984 7.74596Z" fill="white"/>
<path d="M6.83855 6.63937C5.93117 6.63937 5.17871 5.88692 5.17871 4.97954C5.17871 4.07216 5.93117 3.3197 6.83855 3.3197C7.74592 3.3197 8.49838 4.07216 8.49838 4.97954C8.49838 5.88692 7.76806 6.63937 6.83855 6.63937ZM6.83855 4.42626C6.52871 4.42626 6.28527 4.6697 6.28527 4.97954C6.28527 5.28937 6.52871 5.53282 6.83855 5.53282C7.14838 5.53282 7.39183 5.28937 7.39183 4.97954C7.39183 4.6697 7.14838 4.42626 6.83855 4.42626Z" fill="white"/>
<path d="M2.65593 8.34349C2.47888 8.34349 2.30183 8.25497 2.21331 8.10005C2.03626 7.85661 2.10266 7.50251 2.3461 7.32546L5.55511 5.04595C5.79856 4.8689 6.15266 4.93529 6.3297 5.17873C6.50675 5.42218 6.44036 5.77628 6.19692 5.95333L2.9879 8.23283C2.87724 8.29922 2.76659 8.34349 2.65593 8.34349Z" fill="white"/>
<path d="M5.86462 5.0017C5.75396 5.0017 5.64331 4.95744 5.53265 4.89104L2.32363 2.61154C2.08019 2.43449 2.0138 2.08039 2.19085 1.83695C2.3679 1.5935 2.722 1.5271 2.96544 1.70415L6.17446 3.98366C6.4179 4.16071 6.48429 4.51481 6.30724 4.75825C6.19659 4.9353 6.04167 5.0017 5.86462 5.0017Z" fill="white"/>
</svg>
