<svg width="20" height="20" viewBox="0 0 10 9" fill="none" xmlns="http://www.w3.org/2000/svg">
<path d="M4.8023 6.28525C4.49247 6.28525 4.24902 6.04181 4.24902 5.73197V0.553279C4.24902 0.243443 4.49247 0 4.8023 0C5.11214 0 5.35558 0.243443 5.35558 0.553279V5.73197C5.35558 6.01968 5.11214 6.28525 4.8023 6.28525Z" fill="black"/>
<path d="M4.80213 6.28525C4.66935 6.28525 4.51443 6.24098 4.40378 6.13033C4.18247 5.90902 4.18247 5.55492 4.40378 5.35574L6.43984 3.31967C6.66115 3.09836 7.01525 3.09836 7.21443 3.31967C7.43574 3.54098 7.43574 3.89508 7.21443 4.09426L5.17837 6.13033C5.08984 6.21885 4.95705 6.28525 4.80213 6.28525Z" fill="black"/>
<path d="M4.80256 6.28525C4.66977 6.28525 4.51486 6.24098 4.4042 6.13033L2.36813 4.09426C2.14682 3.87295 2.14682 3.51885 2.36813 3.31967C2.58944 3.09836 2.94354 3.09836 3.14272 3.31967L5.17879 5.35574C5.4001 5.57705 5.4001 5.93115 5.17879 6.13033C5.09027 6.21885 4.95748 6.28525 4.80256 6.28525Z" fill="black"/>
<path d="M9.05164 8.49839H0.553279C0.243443 8.49839 0 8.25495 0 7.94511V6.83856C0 6.52872 0.243443 6.28528 0.553279 6.28528C0.863115 6.28528 1.10656 6.52872 1.10656 6.83856V7.39184H8.49836V6.83856C8.49836 6.52872 8.7418 6.28528 9.05164 6.28528C9.36148 6.28528 9.60492 6.52872 9.60492 6.83856V7.94511C9.60492 8.25495 9.36148 8.49839 9.05164 8.49839Z" fill="black"/>
</svg>
