<svg width="20" height="20" viewBox="0 0 9 9" fill="none" xmlns="http://www.w3.org/2000/svg">
<path d="M7.94508 8.12215H0.553279C0.243443 8.12215 0 7.87871 0 7.56887C0 5.22297 1.90327 3.3197 4.24918 3.3197C6.59508 3.3197 8.49836 5.22297 8.49836 7.56887C8.49836 7.87871 8.25492 8.12215 7.94508 8.12215ZM1.15082 7.01559H7.34754C7.08196 5.55494 5.79836 4.42626 4.24918 4.42626C2.7 4.42626 1.41639 5.53281 1.15082 7.01559Z" fill="black"/>
<path d="M4.24925 4.42623C3.03203 4.42623 2.03613 3.43033 2.03613 2.21311C2.03613 0.995902 3.03203 0 4.24925 0C5.46646 0 6.46236 0.995902 6.46236 2.21311C6.46236 3.43033 5.46646 4.42623 4.24925 4.42623ZM4.24925 1.08443C3.62958 1.08443 3.14269 1.57132 3.14269 2.19099C3.14269 2.81066 3.62958 3.29755 4.24925 3.29755C4.86892 3.29755 5.35581 2.81066 5.35581 2.19099C5.35581 1.59345 4.86892 1.08443 4.24925 1.08443Z" fill="black"/>
</svg>
