<svg width="20" height="20" viewBox="0 0 10 6" fill="none" xmlns="http://www.w3.org/2000/svg">
<path d="M4.81906 5.93114C2.87152 5.93114 1.10102 4.93525 0.0829918 3.25328C-0.0276639 3.07623 -0.0276639 2.85491 0.0829918 2.67786C1.10102 0.995896 2.87152 0 4.81906 0C6.7666 0 8.53709 0.995896 9.55512 2.67786C9.66578 2.85491 9.66578 3.07623 9.55512 3.25328C8.51496 4.93525 6.7666 5.93114 4.81906 5.93114ZM1.23381 2.96557C2.0748 4.13852 3.38053 4.82459 4.81906 4.82459C6.25758 4.82459 7.58545 4.13852 8.4043 2.96557C7.56332 1.79261 6.25758 1.10656 4.81906 1.10656C3.38053 1.10656 2.05266 1.79261 1.23381 2.96557Z" fill="white"/>
<path d="M4.81896 4.07212C4.19929 4.07212 3.7124 3.58524 3.7124 2.96557C3.7124 2.34589 4.19929 1.85901 4.81896 1.85901C5.43863 1.85901 5.92552 2.34589 5.92552 2.96557C5.92552 3.58524 5.4165 4.07212 4.81896 4.07212Z" fill="white"/>
</svg>
